<svg xmlns="http://www.w3.org/2000/svg" viewBox="0 0 1200 630" width="1200" height="630">
  <rect width="1200" height="630" fill="#171717"/>
  <!-- Volleyball graphic -->
  <circle cx="900" cy="315" r="200" fill="none" stroke="#2a2a2a" stroke-width="2"/>
  <circle cx="900" cy="315" r="160" fill="none" stroke="#333" stroke-width="1.5"/>
  <path d="M900 155 Q960 215 900 315 Q840 415 900 475" stroke="#2d2d2d" stroke-width="60" fill="none"/>
  <path d="M748 225 Q810 250 840 315" stroke="#2d2d2d" stroke-width="60" fill="none"/>
  <path d="M1052 225 Q990 250 960 315" stroke="#2d2d2d" stroke-width="60" fill="none"/>
  <!-- Logo mark -->
  <rect x="80" y="240" width="72" height="72" rx="18" fill="white"/>
  <circle cx="116" cy="276" r="24" fill="none" stroke="#171717" stroke-width="4"/>
  <path d="M116 252 Q126 264 116 276 Q106 288 116 300" stroke="#171717" stroke-width="4" fill="none"/>
  <path d="M92 268 Q104 272 110 276" stroke="#171717" stroke-width="4" fill="none"/>
  <path d="M140 268 Q128 272 122 276" stroke="#171717" stroke-width="4" fill="none"/>
  <!-- Wordmark -->
  <text x="174" y="291" font-family="system-ui,-apple-system,sans-serif" font-size="48" font-weight="700" fill="white" letter-spacing="-1">VolleyAI Coach</text>
  <!-- Tagline -->
  <text x="80" y="360" font-family="system-ui,-apple-system,sans-serif" font-size="26" font-weight="400" fill="#666" letter-spacing="0">Live stat tracking · AI practice plans · Free for coaches</text>
</svg>
